<?xml version="1.0" encoding="utf-8"?>
<!-- Generator: Adobe Illustrator 23.0.6, SVG Export Plug-In . SVG Version: 6.00 Build 0)  -->
<svg version="1.1" id="Capa_1" xmlns="http://www.w3.org/2000/svg" xmlns:xlink="http://www.w3.org/1999/xlink" x="0px" y="0px"
	 viewBox="0 0 255.1 255.1" style="enable-background:new 0 0 255.1 255.1;" xml:space="preserve">
<style type="text/css">
	.st0{fill:#FB89EB;}
	.st1{fill-rule:evenodd;clip-rule:evenodd;fill:#FFFFFF;}
</style>
<circle class="st0" cx="127.6" cy="127.6" r="121.6"/>
<path class="st1" d="M73.964,180.088l28.739-8.333l24.822,45.386c0.033,0.059,0.117,0.059,0.149,0l24.822-45.386l28.739,8.333
	c0.064,0.019,0.124-0.041,0.105-0.106l-8.334-28.17l44.134-24.138c0.059-0.032,0.059-0.117,0-0.149l-44.498-24.337l8.698-29.4
	c0.019-0.064-0.041-0.124-0.105-0.106l-29.413,8.529l-24.148-44.153c-0.032-0.059-0.117-0.059-0.149,0l-24.148,44.153l-29.413-8.529
	c-0.064-0.019-0.124,0.041-0.105,0.106l8.698,29.4l-44.498,24.337c-0.059,0.032-0.059,0.117,0,0.149l44.134,24.138l-8.334,28.17
	C73.84,180.047,73.9,180.107,73.964,180.088z M96.265,127.91l20.36,11.135l11.135,20.36c0.032,0.059,0.117,0.059,0.149,0
	l11.135-20.36l20.36-11.135c0.059-0.032,0.059-0.117,0-0.149l-20.36-11.135l-11.135-20.36c-0.032-0.059-0.117-0.059-0.149,0
	l-11.135,20.36l-20.36,11.135C96.207,127.793,96.207,127.877,96.265,127.91z"/>
</svg>
