<?xml version="1.0" encoding="utf-8"?>
<!-- Generator: Adobe Illustrator 23.0.6, SVG Export Plug-In . SVG Version: 6.00 Build 0)  -->
<svg version="1.1" id="Capa_1" xmlns="http://www.w3.org/2000/svg" xmlns:xlink="http://www.w3.org/1999/xlink" x="0px" y="0px"
	 viewBox="0 0 255.1 255.1" style="enable-background:new 0 0 255.1 255.1;" xml:space="preserve">
<style type="text/css">
	.st0{fill:#FF6675;}
	.st1{fill:#FEFEFE;}
</style>
<circle class="st0" cx="127.6" cy="127.6" r="121.6"/>
<path class="st1" d="M188.506,183.457c-0.727,1.076-1.859,1.684-2.877,2.4c-10.549,7.418-22.267,11.923-34.952,14.071
	c-6.829,1.157-13.699,1.531-20.593,1.192c-15.919-0.781-30.835-4.841-44.112-13.982c-14.904-10.261-24.217-24.308-28.271-41.901
	c-1.677-7.276-2.224-14.657-1.742-22.082c0.837-12.916,4.115-25.167,11.133-36.151c9.079-14.209,21.809-23.806,37.847-29.014
	c9.179-2.98,18.593-4.398,28.234-3.948c14.763,0.689,28.177,5.245,39.857,14.456c9.174,7.236,15.361,16.604,19.011,27.618
	c5.384,16.249,4.381,32.077-3.484,47.405c-2.592,5.052-6.368,9.078-10.489,12.833c-7.556,6.884-16.239,11.723-26.361,13.496
	c-14.86,2.603-28.301-0.558-39.668-10.819c-7.212-6.509-11.29-14.728-12.569-24.361c-0.814-6.126-0.452-12.182,1.607-17.988
	c4.249-11.981,12.94-19.09,25.219-21.699c7.63-1.621,15.072-0.749,21.835,3.493c7.19,4.509,11.145,11.231,12.273,19.47
	c1.388,10.141-6.052,20.132-16.24,22.38c-3.012,0.664-6.011,0.724-9.026-0.001c-5.81-1.397-10.526-6.446-11.446-12.304
	c-0.352-2.243,0.021-4.44,0.566-6.596c0.347-1.373,1.307-1.909,2.469-1.63c1.113,0.268,1.792,1.239,1.59,2.543
	c-0.161,1.036-0.261,2.061-0.135,3.094c0.695,5.675,5.557,9.085,11.423,8.025c0.146-0.026,0.288-0.07,0.433-0.1
	c10.215-2.141,11.215-12.692,7.645-18.714c-2.537-4.279-6.435-6.668-11.226-7.64c-9.717-1.971-17.792,4.111-20.814,11.214
	c-3.794,8.917-2.271,17.167,3.999,24.433c8.581,9.943,23.247,12.338,34.855,5.796c9.875-5.565,15.873-13.986,17.335-25.222
	c1.457-11.196-1.442-21.152-9.091-29.809c-6.877-7.783-15.413-12.21-25.427-13.809c-24.786-3.958-45.598,8.782-54.523,30.612
	c-3.686,9.016-4.806,18.43-3.754,28.12c1.606,14.794,7.652,27.452,18.354,37.777c9.417,9.086,20.639,14.843,33.534,17.173
	c19.404,3.507,37.707,0.041,55.104-8.932c0.776-0.4,1.48-1.024,2.449-0.928L188.506,183.457z"/>
</svg>
